<svg width="65" height="44" viewBox="0 0 65 44" fill="none" xmlns="http://www.w3.org/2000/svg">
<path d="M0 0H65V44H0V0Z" fill="#2FD09A"/>
<path d="M43.6736 30.7516L38.9998 26.0781C38.7889 25.8672 38.5029 25.75 38.2029 25.75H37.4388C38.7326 24.0953 39.5014 22.0141 39.5014 19.75C39.5014 14.3641 35.137 10 29.7507 10C24.3644 10 20 14.3641 20 19.75C20 25.1359 24.3644 29.5 29.7507 29.5C32.0149 29.5 34.0963 28.7313 35.7512 27.4375V28.2016C35.7512 28.5016 35.8683 28.7875 36.0793 28.9984L40.7531 33.6719C41.1937 34.1125 41.9063 34.1125 42.3423 33.6719L43.6689 32.3453C44.1096 31.9047 44.1096 31.1922 43.6736 30.7516ZM29.7507 25.75C26.4364 25.75 23.7503 23.0688 23.7503 19.75C23.7503 16.4359 26.4317 13.75 29.7507 13.75C33.065 13.75 35.7512 16.4312 35.7512 19.75C35.7512 23.0641 33.0697 25.75 29.7507 25.75Z" fill="#EEEEEE"/>
</svg>
